<svg width="158" height="126" viewBox="0 0 158 126" fill="none" xmlns="http://www.w3.org/2000/svg">
<path d="M27.2765 51.7264H14.2489C6.38351 51.7264 0 45.2914 0 37.3625H27.2765V51.7264Z" fill="#FF9C32"/>
<path d="M27.2765 66.0904H17.5058C9.64041 66.0904 3.2569 59.6636 3.2569 51.7266H27.2765V66.0904Z" fill="#FFB600"/>
<path d="M27.2765 80.4542H22.3911C14.5257 80.4542 8.14221 74.0274 8.14221 66.0903H27.2765V80.4542Z" fill="#F5D259"/>
<path d="M25.648 80.4542H27.2765V37.3625H20.7627L25.648 80.4542Z" fill="#4A3859"/>
<path d="M130.724 51.7264H143.751C151.616 51.7264 158 45.2996 158 37.3625H130.724V51.7264Z" fill="#FF9C32"/>
<path d="M130.724 66.0904H140.494C148.36 66.0904 154.743 59.6636 154.743 51.7266H130.724V66.0904Z" fill="#FFB600"/>
<path d="M130.724 80.4542H135.609C143.474 80.4542 149.858 74.0274 149.858 66.0903H130.724V80.4542Z" fill="#F5D259"/>
<path d="M132.352 80.4542H130.724V37.3625H137.237L132.352 80.4542Z" fill="#4A3859"/>
<path d="M126.433 89.7126V34.4978L79.0041 6.89453L31.5756 34.4978V89.7126L79.0041 117.316L126.433 89.7126Z" fill="#F4C43C"/>
<path d="M79.0041 124.211L25.648 93.1601V31.0506L79.0041 0L132.36 31.0506V93.1518L79.0041 124.202V124.211ZM37.495 86.2654L79.0041 110.421L120.513 86.2654V37.9535L79.0041 13.7975L37.495 37.9535V86.2654Z" fill="#FFB600"/>
<path d="M79.0041 0V13.7893L37.495 37.9453L25.648 31.0506L79.0041 0Z" fill="#FF9C32"/>
<path d="M132.352 93.1603L120.505 86.2656L79.0041 110.422V124.211L132.352 93.1603Z" fill="#FF9C32"/>
<path d="M80.3801 91.732C96.6136 91.732 109.774 78.4659 109.774 62.1013C109.774 45.7368 96.6136 32.4707 80.3801 32.4707C64.1465 32.4707 50.9866 45.7368 50.9866 62.1013C50.9866 78.4659 64.1465 91.732 80.3801 91.732Z" fill="#FFB600"/>
<path d="M80.3801 32.4707C79.4193 32.4707 78.4666 32.5199 77.5303 32.6102C92.4306 34.0548 104.074 46.7033 104.074 62.1013C104.074 77.4994 92.4224 90.1479 77.5303 91.5925C78.4666 91.6827 79.4193 91.732 80.3801 91.732C96.6157 91.732 109.774 78.468 109.774 62.1013C109.774 45.7347 96.6157 32.4707 80.3801 32.4707Z" fill="#FF9C32"/>
<path d="M25.648 93.1603L37.495 86.2656L79.0041 110.422V124.211L25.648 93.1603Z" fill="#F5D259"/>
<path d="M79.0041 0V13.7893L120.505 37.9453L132.352 31.0506L79.0041 0Z" fill="#F5D259"/>
<path d="M37.495 86.2655L79.0041 110.421L120.513 86.2655V37.9536L79.0041 13.7976L37.495 37.9536V86.2655Z" stroke="#ECFFDF" stroke-width="1.54599" stroke-miterlimit="10"/>
<path d="M76.3443 76.2065V46.5235L79.5909 49.7701H69.8511V43.7407H83.8578V76.2065H76.3443Z" fill="#F8FFE1"/>
</svg>
