<svg width="32" height="32" viewBox="0 0 32 32" fill="none" xmlns="http://www.w3.org/2000/svg">
<path opacity="0.3" d="M16 5.33325C10.12 5.33325 5.33331 10.1199 5.33331 15.9999C5.33331 21.8799 10.12 26.6666 16 26.6666C21.88 26.6666 26.6666 21.8799 26.6666 15.9999C26.6666 10.1199 21.88 5.33325 16 5.33325ZM22.6666 20.7866L20.7866 22.6666L16 17.8799L11.2133 22.6666L9.33331 20.7866L14.12 15.9999L9.33331 11.2133L11.2133 9.33325L16 14.1199L20.7866 9.33325L22.6666 11.2133L17.88 15.9999L22.6666 20.7866Z" fill="#EC221F"/>
<path d="M16 2.66675C8.62663 2.66675 2.66663 8.62675 2.66663 16.0001C2.66663 23.3734 8.62663 29.3334 16 29.3334C23.3733 29.3334 29.3333 23.3734 29.3333 16.0001C29.3333 8.62675 23.3733 2.66675 16 2.66675ZM16 26.6667C10.12 26.6667 5.33329 21.8801 5.33329 16.0001C5.33329 10.1201 10.12 5.33341 16 5.33341C21.88 5.33341 26.6666 10.1201 26.6666 16.0001C26.6666 21.8801 21.88 26.6667 16 26.6667ZM20.7866 9.33341L16 14.1201L11.2133 9.33341L9.33329 11.2134L14.12 16.0001L9.33329 20.7867L11.2133 22.6667L16 17.8801L20.7866 22.6667L22.6666 20.7867L17.88 16.0001L22.6666 11.2134L20.7866 9.33341Z" fill="#EC221F"/>
</svg>
