<svg width="32" height="32" viewBox="0 0 32 32" fill="none" xmlns="http://www.w3.org/2000/svg">
<path opacity="0.3" d="M16 5.33325C10.12 5.33325 5.33337 10.1199 5.33337 15.9999C5.33337 21.8799 10.12 26.6666 16 26.6666C21.88 26.6666 26.6667 21.8799 26.6667 15.9999C26.6667 10.1199 21.88 5.33325 16 5.33325Z" fill="#007AFF"/>
<path d="M16 2.66675C8.62663 2.66675 2.66663 8.62675 2.66663 16.0001C2.66663 23.3734 8.62663 29.3334 16 29.3334C23.3733 29.3334 29.3333 23.3734 29.3333 16.0001C29.3333 8.62675 23.3733 2.66675 16 2.66675ZM16 26.6667C10.12 26.6667 5.33329 21.8801 5.33329 16.0001C5.33329 10.1201 10.12 5.33341 16 5.33341C21.88 5.33341 26.6666 10.1201 26.6666 16.0001C26.6666 21.8801 21.88 26.6667 16 26.6667Z" fill="#007AFF"/>
<path d="M9.86996 11.8501V11.0801C9.86996 10.5268 9.98996 10.0234 10.23 9.57009C10.47 9.11675 10.83 8.75342 11.31 8.48009C11.79 8.20675 12.3866 8.07009 13.1 8.07009C13.8333 8.07009 14.44 8.20675 14.92 8.48009C15.4 8.75342 15.7566 9.11675 15.99 9.57009C16.23 10.0234 16.35 10.5268 16.35 11.0801V11.8501C16.35 12.3901 16.23 12.8868 15.99 13.3401C15.7566 13.7934 15.4 14.1568 14.92 14.4301C14.4466 14.7034 13.8466 14.8401 13.12 14.8401C12.4 14.8401 11.8 14.7034 11.32 14.4301C10.84 14.1568 10.4766 13.7934 10.23 13.3401C9.98996 12.8868 9.86996 12.3901 9.86996 11.8501ZM12.03 11.0801V11.8501C12.03 12.0501 12.07 12.2401 12.15 12.4201C12.23 12.6001 12.35 12.7468 12.51 12.8601C12.6766 12.9668 12.88 13.0201 13.12 13.0201C13.3666 13.0201 13.5666 12.9668 13.72 12.8601C13.8733 12.7468 13.9866 12.6001 14.06 12.4201C14.14 12.2401 14.18 12.0501 14.18 11.8501V11.0801C14.18 10.8668 14.14 10.6701 14.06 10.4901C13.9866 10.3101 13.87 10.1668 13.71 10.0601C13.55 9.94675 13.3466 9.89009 13.1 9.89009C12.8666 9.89009 12.67 9.94675 12.51 10.0601C12.35 10.1668 12.23 10.3101 12.15 10.4901C12.07 10.6701 12.03 10.8668 12.03 11.0801ZM16.78 20.0401V19.2701C16.78 18.7234 16.9 18.2234 17.14 17.7701C17.3866 17.3168 17.75 16.9534 18.23 16.6801C18.7166 16.4068 19.3166 16.2701 20.03 16.2701C20.7633 16.2701 21.3666 16.4068 21.84 16.6801C22.32 16.9534 22.6766 17.3168 22.91 17.7701C23.15 18.2234 23.27 18.7234 23.27 19.2701V20.0401C23.27 20.5868 23.15 21.0868 22.91 21.5401C22.6766 21.9934 22.3233 22.3568 21.85 22.6301C21.3766 22.9034 20.7766 23.0401 20.05 23.0401C19.33 23.0401 18.7266 22.9034 18.24 22.6301C17.7533 22.3568 17.3866 21.9934 17.14 21.5401C16.9 21.0868 16.78 20.5868 16.78 20.0401ZM18.95 19.2701V20.0401C18.95 20.2468 19 20.4401 19.1 20.6201C19.2 20.8001 19.3333 20.9468 19.5 21.0601C19.6666 21.1668 19.85 21.2201 20.05 21.2201C20.3566 21.2201 20.5833 21.1668 20.73 21.0601C20.8833 20.9468 20.9833 20.8001 21.03 20.6201C21.0833 20.4401 21.11 20.2468 21.11 20.0401V19.2701C21.11 19.0634 21.07 18.8701 20.99 18.6901C20.91 18.5101 20.79 18.3668 20.63 18.2601C20.47 18.1468 20.27 18.0901 20.03 18.0901C19.79 18.0901 19.59 18.1468 19.43 18.2601C19.27 18.3668 19.15 18.5101 19.07 18.6901C18.99 18.8701 18.95 19.0634 18.95 19.2701ZM20.87 10.3701L13.76 21.7501L12.19 20.9601L19.3 9.58009L20.87 10.3701Z" fill="#007AFF"/>
</svg>
