<svg width="32" height="32" viewBox="0 0 32 32" fill="none" xmlns="http://www.w3.org/2000/svg">
<path d="M16.9165 5.03998L19.8106 10.9972C19.8764 11.1485 19.9799 11.2794 20.1109 11.3771C20.2418 11.4748 20.3956 11.5358 20.5568 11.554L26.9457 12.519C27.1306 12.5433 27.305 12.6207 27.4484 12.7422C27.5919 12.8637 27.6985 13.0244 27.7559 13.2053C27.813 13.3863 27.8187 13.5802 27.7719 13.7643C27.7251 13.9484 27.6279 14.1151 27.4918 14.245L22.8867 18.9032C22.7691 19.0151 22.6809 19.1552 22.6301 19.3108C22.5793 19.4664 22.5673 19.6325 22.5955 19.794L23.7058 26.345C23.7378 26.5334 23.7176 26.727 23.6472 26.904C23.5766 27.081 23.4588 27.2343 23.3072 27.3466C23.1554 27.4587 22.9759 27.5252 22.7888 27.5385C22.6019 27.5517 22.4151 27.5112 22.2497 27.4214L16.4978 24.3221C16.3506 24.2485 16.1887 24.2102 16.0246 24.2102C15.8605 24.2102 15.6986 24.2485 15.5513 24.3221L9.79959 27.4214C9.63411 27.5112 9.44727 27.5517 9.26032 27.5385C9.07337 27.5252 8.89381 27.4587 8.7421 27.3466C8.59037 27.2343 8.47257 27.081 8.40209 26.904C8.33161 26.727 8.3113 26.5334 8.34344 26.345L9.45375 19.7197C9.48189 19.5583 9.46999 19.3922 9.41913 19.2366C9.36826 19.081 9.28005 18.9409 9.16252 18.8289L4.50287 14.245C4.36502 14.1115 4.26807 13.9402 4.22378 13.7517C4.17948 13.5632 4.18974 13.3657 4.2533 13.1831C4.31687 13.0004 4.43102 12.8405 4.58193 12.7226C4.73283 12.6048 4.91402 12.534 5.10353 12.519L11.4924 11.554C11.6536 11.5358 11.8074 11.4748 11.9383 11.3771C12.0693 11.2794 12.1728 11.1485 12.2386 10.9972L15.1327 5.03998C15.2115 4.86648 15.3374 4.71958 15.4954 4.61663C15.6534 4.51369 15.8371 4.45898 16.0246 4.45898C16.2121 4.45898 16.3957 4.51369 16.5538 4.61663C16.7118 4.71958 16.8377 4.86648 16.9165 5.03998Z" fill="#FFD600" fill-opacity="0.5" stroke="#FFD600" stroke-width="2.62295" stroke-linecap="round" stroke-linejoin="round"/>
</svg>
