<svg width="32" height="32" viewBox="0 0 32 32" fill="none" xmlns="http://www.w3.org/2000/svg">
<path opacity="0.3" d="M16 5.33325C10.12 5.33325 5.33331 10.1199 5.33331 15.9999C5.33331 21.8799 10.12 26.6666 16 26.6666C21.88 26.6666 26.6666 21.8799 26.6666 15.9999C26.6666 10.1199 21.88 5.33325 16 5.33325ZM13.3333 22.6666L7.99998 17.3333L9.87998 15.4533L13.3333 18.8933L22.12 10.1066L24 11.9999L13.3333 22.6666Z" fill="#75F94C"/>
<path d="M16 2.66675C8.63996 2.66675 2.66663 8.64008 2.66663 16.0001C2.66663 23.3601 8.63996 29.3334 16 29.3334C23.36 29.3334 29.3333 23.3601 29.3333 16.0001C29.3333 8.64008 23.36 2.66675 16 2.66675ZM16 26.6667C10.12 26.6667 5.33329 21.8801 5.33329 16.0001C5.33329 10.1201 10.12 5.33341 16 5.33341C21.88 5.33341 26.6666 10.1201 26.6666 16.0001C26.6666 21.8801 21.88 26.6667 16 26.6667ZM22.12 10.1067L13.3333 18.8934L9.87996 15.4534L7.99996 17.3334L13.3333 22.6667L24 12.0001L22.12 10.1067Z" fill="#75F94C"/>
</svg>
