<svg xmlns="http://www.w3.org/2000/svg" width="200" height="64" viewBox="0 0 304 64"><defs><linearGradient id="linear0" x1="0" x2="1106.58" y1="116.5" y2="116.5" gradientTransform="matrix(.27462 0 0 .27468 .058 0)" gradientUnits="userSpaceOnUse"><stop offset=".01" style="stop-color:#bd24df;stop-opacity:1"/><stop offset="1" style="stop-color:#2d6ade;stop-opacity:1"/></linearGradient><linearGradient id="linear1" x1="242.01" x2="301.33" y1="117.54" y2="117.54" gradientTransform="matrix(.27462 0 0 .27468 .058 0)" gradientUnits="userSpaceOnUse"><stop offset=".01" style="stop-color:#bd24df;stop-opacity:1"/><stop offset="1" style="stop-color:#2d6ade;stop-opacity:1"/></linearGradient><linearGradient id="linear2" x1="54.68" x2="399.93" y1="117.54" y2="117.54" gradientTransform="matrix(.27462 0 0 .27468 .058 0)" gradientUnits="userSpaceOnUse"><stop offset=".01" style="stop-color:#bd24df;stop-opacity:1"/><stop offset="1" style="stop-color:#2d6ade;stop-opacity:1"/></linearGradient><linearGradient id="linear3" x1="166.66" x2="376.7" y1="117.53" y2="117.53" gradientTransform="matrix(.27462 0 0 .27468 .058 0)" gradientUnits="userSpaceOnUse"><stop offset=".01" style="stop-color:#bd24df;stop-opacity:1"/><stop offset="1" style="stop-color:#2d6ade;stop-opacity:1"/></linearGradient><linearGradient id="linear4" x1="182.14" x2="361.21" y1="117.53" y2="117.53" gradientTransform="matrix(.27462 0 0 .27468 .058 0)" gradientUnits="userSpaceOnUse"><stop offset=".01" style="stop-color:#bd24df;stop-opacity:1"/><stop offset="1" style="stop-color:#2d6ade;stop-opacity:1"/></linearGradient></defs><g id="surface1"><path d="M126.008 2.434h175.426l-5.067 43.242L284.22 61.77l-261.457-.067c-2.934.067-10.043-5.523-10.043-5.523-4.633-3.473-10.438-10.332-10.438-22 .008-9.239 3.977-17.672 8.211-22.293 5.73-6.239 13.586-9.785 21.543-9.653l39.117.196Zm0 0" style="stroke:none;fill-rule:evenodd;fill:#1a1a1a;fill-opacity:1"/><path d="M285.332 64H28.692a27.57 27.57 0 0 1-17.266-5.996l-.106-.09C7.11 54.5.06 46.605.06 32.098c0-10.493 3.96-16.016 8.742-21.66C14.57 3.637 23.223-.187 32.527 0l38.856.2H303.94l-5.43 46.34ZM31.961 4.46c-7.8 0-14.969 3.216-19.758 8.868-4.355 5.133-7.691 9.774-7.691 18.774 0 12.656 6.02 19.433 9.613 22.343l.113.098a23.1 23.1 0 0 0 14.453 4.996H283.11l11.114-14.723 4.707-40.148H71.37l-38.894-.191Zm0 0" style="stroke:none;fill-rule:nonzero;fill:url(#linear0)"/><path d="m126.234 44.105-1.21 5.797h-18.637l7.414-34.918h6.09l-6.114 29.114Zm39.43-29.371-4.332 20.356a16.9 16.9 0 0 1-2.367 5.668 20.4 20.4 0 0 1-4.106 4.637 19.3 19.3 0 0 1-5.265 3.125 16 16 0 0 1-5.895 1.132h-.25a12.7 12.7 0 0 1-5.441-1.132 10.8 10.8 0 0 1-3.98-3.125 11.4 11.4 0 0 1-2.141-4.637 13.3 13.3 0 0 1 .078-5.668l4.328-20.356h5.844l-3.121 14.559-1.207 5.793a7.8 7.8 0 0 0-.055 3.398 6.8 6.8 0 0 0 1.285 2.774 6.5 6.5 0 0 0 2.367 1.863c1.02.469 2.13.7 3.25.684h.254a9.8 9.8 0 0 0 3.55-.68 11.7 11.7 0 0 0 5.618-4.637 10.7 10.7 0 0 0 1.414-3.398l1.211-5.793 3.121-14.559Zm33.215-.062-1.25 5.848h-25.606l1.262-5.848Zm-11.809 9.984-5.472 24.996h-5.786l5.47-24.996Zm25.692-9.922-7.414 34.918h-5.786l7.415-34.918Zm34.941 14.563-1.207 5.793a17.3 17.3 0 0 1-2.344 5.668 19.9 19.9 0 0 1-4.082 4.637 19.2 19.2 0 0 1-5.261 3.125c-1.922.753-7.192 1.132-5.895 1.132h-1.613a12.7 12.7 0 0 1-5.438-1.132 10.6 10.6 0 0 1-3.957-3.125 11.8 11.8 0 0 1-2.14-4.637 12.9 12.9 0 0 1 .05-5.668l1.211-5.793a16.9 16.9 0 0 1 2.368-5.676 20.4 20.4 0 0 1 4.105-4.637 19.2 19.2 0 0 1 5.29-3.12 16.2 16.2 0 0 1 5.917-1.137h1.61a12.5 12.5 0 0 1 5.417 1.136 10.6 10.6 0 0 1 3.93 3.121 11.56 11.56 0 0 1 2.117 4.637c.383 1.875.36 3.813-.078 5.676M240.7 35.09l1.211-5.793a7.8 7.8 0 0 0 .05-3.402 7.2 7.2 0 0 0-1.26-2.797 6.1 6.1 0 0 0-2.368-1.891 7.6 7.6 0 0 0-3.273-.676h-1.61a9.5 9.5 0 0 0-3.539.676 11.98 11.98 0 0 0-5.64 4.688 10.5 10.5 0 0 0-1.41 3.402l-1.188 5.793a7.75 7.75 0 0 0-.047 3.402 6.7 6.7 0 0 0 1.285 2.77 6.5 6.5 0 0 0 2.367 1.867c1.016.465 2.13.7 3.246.68h1.614a9.7 9.7 0 0 0 3.535-.684 11.68 11.68 0 0 0 5.621-4.637 10.6 10.6 0 0 0 1.406-3.398m22.96-20.356 15.926 34.918h-7.004l-11.133-24.449-5.187 24.45h-5.801l7.414-34.919Zm23.32 0-7.414 34.918-4.02-8.726 5.59-26.2Zm0 0" style="stroke:none;fill-rule:nonzero;fill:#fff;fill-opacity:1"/><path d="M69.422 40.434c1.648 0 3.687-.774 5.77-2.168 4.605-3.106 8.074-8.543 7.566-11.899-.274-1.847-1.703-2.238-2.852-2.238-1.644 0-3.687.77-5.765 2.168-4.606 3.105-8.079 8.55-7.575 11.883.282 1.86 1.707 2.254 2.856 2.254m4.969-13.762c2.004-1.348 3.96-2.094 5.515-2.094 2.14 0 2.352 1.406 2.418 1.867.485 3.192-2.902 8.438-7.383 11.461C72.937 39.254 70.977 40 69.421 40c-2.136 0-2.35-1.406-2.421-1.871-.484-3.2 2.902-8.441 7.39-11.457m0 0" style="stroke:none;fill-rule:nonzero;fill:url(#linear1)"/><path d="M32.633 14.672a16.9 16.9 0 0 0-6.848 1.394 17.9 17.9 0 0 0-5.586 3.782 17.6 17.6 0 0 0-3.754 5.586 17.8 17.8 0 0 0 0 13.707 17.6 17.6 0 0 0 3.754 5.582 18.1 18.1 0 0 0 5.586 3.78 16.9 16.9 0 0 0 6.848 1.4h42.031l35.223-35.231ZM28.07 43.098a11.7 11.7 0 0 1-6.246-6.246q-.275-.646-.469-1.32h23.711l-5.78-5.77H21.171q.23-1.056.652-2.047a11.72 11.72 0 0 1 6.246-6.242 11.4 11.4 0 0 1 4.563-.914h36.14L45.324 44.012H32.633a11.4 11.4 0 0 1-4.563-.914m46.047 5.476H42.625L75.23 15.996h31.465Zm0 0" style="stroke:none;fill-rule:nonzero;fill:url(#linear2)"/><path d="M75.777 17.305 45.824 47.246h27.739l29.933-29.941Zm-2.574 29.062H47.941l28.204-28.176h25.246Zm0 0" style="stroke:none;fill-rule:nonzero;fill:url(#linear3)"/><path d="m72.832 45.492 26.41-26.418H76.508l-26.43 26.418Zm.824-19.918c2.301-1.55 4.496-2.316 6.25-2.316 2.008 0 3.426 1.008 3.727 2.992.547 3.707-3.004 9.414-7.965 12.746-2.305 1.55-4.504 2.316-6.254 2.316-2.012 0-3.43-1.007-3.73-2.996-.543-3.707 3.027-9.41 7.972-12.742m0 0" style="stroke:none;fill-rule:nonzero;fill:url(#linear4)"/></g></svg>